<svg xmlns="http://www.w3.org/2000/svg" xmlns:xlink="http://www.w3.org/1999/xlink" width="200" height="200" viewBox="0 0 200 200"><defs><linearGradient id="a" x2="1" y2="1" gradientUnits="objectBoundingBox"><stop offset="0" stop-color="#2ed573"/><stop offset="1" stop-color="#0bbfd4"/></linearGradient><clipPath id="c"><rect width="200" height="200"/></clipPath></defs><g id="b" clip-path="url(#c)"><path d="M408-13359a39.736,39.736,0,0,1-15.568-3.145,39.923,39.923,0,0,1-12.716-8.571,39.922,39.922,0,0,1-8.572-12.717A39.737,39.737,0,0,1,368-13399v-120a39.737,39.737,0,0,1,3.144-15.568,39.922,39.922,0,0,1,8.572-12.717,39.923,39.923,0,0,1,12.716-8.571A39.736,39.736,0,0,1,408-13559H528a39.753,39.753,0,0,1,15.572,3.145,39.872,39.872,0,0,1,12.713,8.571,39.921,39.921,0,0,1,8.572,12.717A39.734,39.734,0,0,1,568-13519v120a39.734,39.734,0,0,1-3.141,15.568,39.921,39.921,0,0,1-8.572,12.717,39.872,39.872,0,0,1-12.713,8.571A39.753,39.753,0,0,1,528-13359Zm4.049-150.944c-9.7,8.923-14.625,18.7-14.625,29.054a34.187,34.187,0,0,0,11.876,26.308c7.884,7.1,18.025,11.3,30.136,12.468-1.691,16.018-2.552,27.706-2.552,34.747a29.122,29.122,0,0,0,5.792,18.161c3.849,5.016,9.3,7.558,16.2,7.558,10.682,0,22.507-7,35.141-20.812s23.337-30.452,31.8-49.471,12.761-36.063,12.761-50.651a51.892,51.892,0,0,0-5.2-23.262c-3.451-6.969-7.646-10.5-12.468-10.5l-4.318,2.75c-2.865,1.694-6.431,4.828-10.6,9.323a58.826,58.826,0,0,0-10.209,15.215,93.69,93.69,0,0,1,12.516,19.686,42.784,42.784,0,0,1,4.172,17.419,93.891,93.891,0,0,1-2.995,16,103.965,103.965,0,0,1-5.839,15.8,123.836,123.836,0,0,1-7.534,14.037,73.785,73.785,0,0,1-8.075,10.7,40,40,0,0,1-7.779,6.771,12.8,12.8,0,0,1-6.649,2.256,5.047,5.047,0,0,1-4.567-2.453c-1.007-1.627-1.521-4.1-1.521-7.36a228.54,228.54,0,0,1,2.355-27.683,98.929,98.929,0,0,0,23.953-7.85c-.133-5.6-1.582-9.831-4.318-12.567l-2.161,1.181a61.588,61.588,0,0,1-15.7,5.689l1.375-11.579a128.22,128.22,0,0,0,1.371-18.454c0-11.92-2.426-20.985-7.214-26.947s-12.067-8.98-21.642-8.98C433.014-13523.393,421.751-13518.866,412.049-13509.944Zm28.747,54.871a37.827,37.827,0,0,1-11.985-1.841,32.262,32.262,0,0,1-10.086-5.522,25.08,25.08,0,0,1-6.847-8.245,22.166,22.166,0,0,1-2.283-10.012,23.382,23.382,0,0,1,2.137-10.011,24.8,24.8,0,0,1,6.4-8.245,39.281,39.281,0,0,1,8-5.523,15.822,15.822,0,0,1,6.918-1.841,11.534,11.534,0,0,1,5.325,1.106,7.186,7.186,0,0,1,3.216,3.311c1.433,2.93,2.157,7.854,2.157,14.626s-.99,17.616-2.943,32.2Z" transform="translate(-368.001 13559)" fill="url(#a)"/></g></svg>